<mxfile host="app.diagrams.net" modified="2021-01-10T03:59:10.906Z" agent="5.0 (Macintosh; Intel Mac OS X 10_14_6) AppleWebKit/537.36 (KHTML, like Gecko) Chrome/87.0.4280.88 Safari/537.36" etag="nq4E9khv_qbCATiVUoVy" version="14.1.8" type="github">
  <diagram id="O6pP9l2PxGbp8MwCtvFU" name="Page-1">
    <mxGraphModel dx="946" dy="544" grid="1" gridSize="10" guides="1" tooltips="1" connect="1" arrows="1" fold="1" page="1" pageScale="1" pageWidth="827" pageHeight="1169" math="0" shadow="0">
      <root>
        <mxCell id="0" />
        <mxCell id="1" parent="0" />
        <mxCell id="hH1a-xPFMU92AcwWNgor-1" value="阿里云账单系统" style="ellipse;whiteSpace=wrap;html=1;" parent="1" vertex="1">
          <mxGeometry x="50" y="380" width="120" height="80" as="geometry" />
        </mxCell>
        <mxCell id="hH1a-xPFMU92AcwWNgor-2" value="OSS" style="shape=cylinder3;whiteSpace=wrap;html=1;boundedLbl=1;backgroundOutline=1;size=15;labelPosition=center;verticalLabelPosition=top;align=center;verticalAlign=bottom;" parent="1" vertex="1">
          <mxGeometry x="280" y="366" width="60" height="110" as="geometry" />
        </mxCell>
        <mxCell id="hH1a-xPFMU92AcwWNgor-3" value="" style="shape=flexArrow;endArrow=classic;html=1;" parent="1" edge="1">
          <mxGeometry width="50" height="50" relative="1" as="geometry">
            <mxPoint x="180" y="420" as="sourcePoint" />
            <mxPoint x="270" y="420" as="targetPoint" />
          </mxGeometry>
        </mxCell>
        <mxCell id="hH1a-xPFMU92AcwWNgor-4" value="&lt;span style=&quot;color: rgb(51 , 51 , 51) ; font-size: 9px ; background-color: rgb(255 , 255 , 255)&quot;&gt;SubscribeBillToOSS&lt;br&gt;(T-2)&lt;br&gt;&lt;/span&gt;" style="text;html=1;strokeColor=none;fillColor=none;align=center;verticalAlign=middle;whiteSpace=wrap;rounded=0;fontSize=9;" parent="1" vertex="1">
          <mxGeometry x="204" y="390" width="40" height="20" as="geometry" />
        </mxCell>
        <mxCell id="hH1a-xPFMU92AcwWNgor-6" value="&lt;div class=&quot;table-item&quot; style=&quot;box-sizing: border-box ; padding: 0px ; margin: 4px 0px 0px ; display: inline-flex ; background-color: rgb(255 , 255 , 255)&quot;&gt;&lt;font&gt;devops_f_bl_&lt;br&gt;subscribe&lt;br&gt;账单原始表&lt;br&gt;&lt;/font&gt;&lt;/div&gt;" style="text;html=1;strokeColor=none;fillColor=none;align=center;verticalAlign=middle;whiteSpace=wrap;rounded=0;fontSize=9;" parent="1" vertex="1">
          <mxGeometry x="291" y="416" width="40" height="20" as="geometry" />
        </mxCell>
        <mxCell id="hH1a-xPFMU92AcwWNgor-8" value="&lt;font size=&quot;1&quot;&gt;devops_f_bl_&lt;br&gt;subscribe_day&lt;br&gt;账单清洗表&lt;/font&gt;" style="rounded=1;whiteSpace=wrap;html=1;fontSize=9;fillColor=#f8cecc;strokeColor=#b85450;" parent="1" vertex="1">
          <mxGeometry x="400" y="394" width="120" height="50" as="geometry" />
        </mxCell>
        <mxCell id="hH1a-xPFMU92AcwWNgor-14" value="&lt;font size=&quot;1&quot;&gt;devops_f_bl_dept_&lt;br&gt;sys_task_info&lt;br&gt;部门资产表&lt;br&gt;&lt;/font&gt;" style="rounded=1;whiteSpace=wrap;html=1;fontSize=9;fillColor=#d5e8d4;strokeColor=#82b366;" parent="1" vertex="1">
          <mxGeometry x="590" y="670" width="120" height="45.5" as="geometry" />
        </mxCell>
        <mxCell id="hH1a-xPFMU92AcwWNgor-15" value="" style="shape=flexArrow;endArrow=classic;html=1;" parent="1" edge="1">
          <mxGeometry width="50" height="50" relative="1" as="geometry">
            <mxPoint x="340" y="420.5" as="sourcePoint" />
            <mxPoint x="400" y="421" as="targetPoint" />
          </mxGeometry>
        </mxCell>
        <mxCell id="hH1a-xPFMU92AcwWNgor-17" value="" style="strokeWidth=2;html=1;shape=mxgraph.flowchart.annotation_2;align=left;labelPosition=right;pointerEvents=1;fontSize=9;direction=west;" parent="1" vertex="1">
          <mxGeometry x="540" y="420" width="30" height="410" as="geometry" />
        </mxCell>
        <mxCell id="hH1a-xPFMU92AcwWNgor-18" value="&lt;font&gt;&lt;span class=&quot;table-item-name&quot; style=&quot;box-sizing: border-box ; padding: 0px ; margin: 0px ; cursor: pointer ; background-color: rgb(255 , 255 , 255)&quot;&gt;&lt;span style=&quot;box-sizing: border-box ; padding: 0px ; margin: 0px&quot;&gt;devops_f_&lt;br&gt;resourcemanager&lt;br&gt;&lt;br&gt;&lt;/span&gt;&lt;/span&gt;&lt;span style=&quot;font-size: 12px ; box-sizing: border-box ; padding: 0px ; margin: 0px ; background-color: rgb(255 , 255 , 255)&quot;&gt;&lt;span class=&quot;anticon anticon-copy icon icon-bg&quot; style=&quot;box-sizing: border-box ; padding: 0px ; margin: 3px 0px 0px ; display: block ; vertical-align: baseline ; text-align: center ; line-height: 1 ; cursor: pointer ; right: 51px ; position: absolute ; background-color: rgba(255 , 255 , 255 , 0.7)&quot;&gt;&lt;/span&gt;&lt;/span&gt;&lt;span style=&quot;font-size: 12px ; box-sizing: border-box ; padding: 0px ; margin: 0px ; background-color: rgb(255 , 255 , 255)&quot;&gt;&lt;span class=&quot;anticon anticon-safety icon icon-bg&quot; style=&quot;box-sizing: border-box ; padding: 0px ; margin: 3px 0px 0px ; display: block ; vertical-align: baseline ; text-align: center ; line-height: 1 ; cursor: pointer ; right: 36px ; position: absolute ; background-color: rgba(255 , 255 , 255 , 0.7)&quot;&gt;&lt;/span&gt;&lt;/span&gt;&lt;span style=&quot;font-size: 12px ; box-sizing: border-box ; padding: 0px ; margin: 0px ; background-color: rgb(255 , 255 , 255)&quot;&gt;&lt;span class=&quot;anticon anticon-star-o icon icon-bg&quot; style=&quot;box-sizing: border-box ; padding: 0px ; margin: 3px 0px 0px ; display: block ; vertical-align: baseline ; text-align: center ; line-height: 1 ; cursor: pointer ; right: 20px ; position: absolute ; background-color: rgba(255 , 255 , 255 , 0.7)&quot;&gt;&lt;/span&gt;&lt;/span&gt;&lt;/font&gt;&lt;span class=&quot;icon&quot; style=&quot;box-sizing: border-box ; padding: 0px ; margin: 0px ; cursor: pointer ; display: block ; right: 3px ; position: absolute ; background-color: rgb(255 , 255 , 255)&quot;&gt;&lt;span class=&quot;anticon anticon-info-circle-o icon-bg&quot; style=&quot;box-sizing: border-box ; padding: 0px ; margin: 0px ; display: inline-block ; vertical-align: baseline ; text-align: center ; line-height: 1 ; background-color: rgba(255 , 255 , 255 , 0.7)&quot;&gt;&lt;/span&gt;&lt;/span&gt;" style="rounded=1;whiteSpace=wrap;html=1;fontSize=9;" parent="1" vertex="1">
          <mxGeometry x="50" y="620" width="120" height="50" as="geometry" />
        </mxCell>
        <mxCell id="hH1a-xPFMU92AcwWNgor-19" value="&lt;font&gt;&lt;span class=&quot;table-item-name&quot; style=&quot;box-sizing: border-box ; padding: 0px ; margin: 0px ; cursor: pointer ; background-color: rgb(255 , 255 , 255)&quot;&gt;&lt;span style=&quot;box-sizing: border-box ; padding: 0px ; margin: 0px&quot;&gt;devops_f_&lt;br&gt;jobhistory&lt;br&gt;&lt;br&gt;&lt;/span&gt;&lt;/span&gt;&lt;span style=&quot;font-size: 12px ; box-sizing: border-box ; padding: 0px ; margin: 0px ; background-color: rgb(255 , 255 , 255)&quot;&gt;&lt;span class=&quot;anticon anticon-copy icon icon-bg&quot; style=&quot;box-sizing: border-box ; padding: 0px ; margin: 3px 0px 0px ; display: block ; vertical-align: baseline ; text-align: center ; line-height: 1 ; cursor: pointer ; right: 51px ; position: absolute ; background-color: rgba(255 , 255 , 255 , 0.7)&quot;&gt;&lt;/span&gt;&lt;/span&gt;&lt;span style=&quot;font-size: 12px ; box-sizing: border-box ; padding: 0px ; margin: 0px ; background-color: rgb(255 , 255 , 255)&quot;&gt;&lt;span class=&quot;anticon anticon-safety icon icon-bg&quot; style=&quot;box-sizing: border-box ; padding: 0px ; margin: 3px 0px 0px ; display: block ; vertical-align: baseline ; text-align: center ; line-height: 1 ; cursor: pointer ; right: 36px ; position: absolute ; background-color: rgba(255 , 255 , 255 , 0.7)&quot;&gt;&lt;/span&gt;&lt;/span&gt;&lt;span style=&quot;font-size: 12px ; box-sizing: border-box ; padding: 0px ; margin: 0px ; background-color: rgb(255 , 255 , 255)&quot;&gt;&lt;span class=&quot;anticon anticon-star-o icon icon-bg&quot; style=&quot;box-sizing: border-box ; padding: 0px ; margin: 3px 0px 0px ; display: block ; vertical-align: baseline ; text-align: center ; line-height: 1 ; cursor: pointer ; right: 20px ; position: absolute ; background-color: rgba(255 , 255 , 255 , 0.7)&quot;&gt;&lt;/span&gt;&lt;/span&gt;&lt;/font&gt;&lt;span class=&quot;icon&quot; style=&quot;box-sizing: border-box ; padding: 0px ; margin: 0px ; cursor: pointer ; display: block ; right: 3px ; position: absolute ; background-color: rgb(255 , 255 , 255)&quot;&gt;&lt;span class=&quot;anticon anticon-info-circle-o icon-bg&quot; style=&quot;box-sizing: border-box ; padding: 0px ; margin: 0px ; display: inline-block ; vertical-align: baseline ; text-align: center ; line-height: 1 ; background-color: rgba(255 , 255 , 255 , 0.7)&quot;&gt;&lt;/span&gt;&lt;/span&gt;" style="rounded=1;whiteSpace=wrap;html=1;fontSize=9;" parent="1" vertex="1">
          <mxGeometry x="50" y="720" width="120" height="50" as="geometry" />
        </mxCell>
        <mxCell id="hH1a-xPFMU92AcwWNgor-20" value="&lt;font size=&quot;1&quot;&gt;devops_f_bl_job_cost&lt;br&gt;任务资源表&lt;br&gt;&lt;/font&gt;" style="rounded=1;whiteSpace=wrap;html=1;fontSize=9;" parent="1" vertex="1">
          <mxGeometry x="220" y="674.5" width="120" height="50" as="geometry" />
        </mxCell>
        <mxCell id="hH1a-xPFMU92AcwWNgor-21" value="&lt;font size=&quot;1&quot;&gt;devops_f_bl_job_&lt;br&gt;cost_info&lt;br&gt;任务费用表&lt;br&gt;&lt;/font&gt;" style="rounded=1;whiteSpace=wrap;html=1;fontSize=9;" parent="1" vertex="1">
          <mxGeometry x="400" y="621" width="120" height="50" as="geometry" />
        </mxCell>
        <mxCell id="hH1a-xPFMU92AcwWNgor-25" value="&lt;font size=&quot;1&quot;&gt;devops_s_script_running_info&lt;br&gt;ods_latte_dsbigdatabiz_datax_extract_hive_to_mysql_job&lt;br&gt;ods_latte_news_xray_user_query_history&lt;br&gt;...&lt;br&gt;&lt;/font&gt;" style="rounded=1;whiteSpace=wrap;html=1;fontSize=9;" parent="1" vertex="1">
          <mxGeometry x="220" y="560" width="120" height="70" as="geometry" />
        </mxCell>
        <mxCell id="hH1a-xPFMU92AcwWNgor-27" value="" style="strokeWidth=2;html=1;shape=mxgraph.flowchart.annotation_2;align=left;labelPosition=right;pointerEvents=1;fontSize=9;direction=west;" parent="1" vertex="1">
          <mxGeometry x="340" y="596" width="50" height="100" as="geometry" />
        </mxCell>
        <mxCell id="hH1a-xPFMU92AcwWNgor-29" value="&lt;span style=&quot;color: rgb(17 , 31 , 44) ; font-family: , , &amp;#34;pingfang sc&amp;#34; , &amp;#34;hiragino sans gb&amp;#34; , &amp;#34;segoe ui&amp;#34; , , &amp;#34;roboto&amp;#34; , &amp;#34;droid sans&amp;#34; , &amp;#34;helvetica neue&amp;#34; , sans-serif ; font-size: 14px ; text-align: left ; background-color: rgb(255 , 255 , 255)&quot;&gt;devops_f_featurehub_&lt;br&gt;feature_resource_cost&lt;/span&gt;&lt;font size=&quot;1&quot;&gt;&lt;br&gt;标签费用表&lt;br&gt;&lt;/font&gt;" style="rounded=1;whiteSpace=wrap;html=1;fontSize=9;" parent="1" vertex="1">
          <mxGeometry x="400" y="720" width="120" height="50" as="geometry" />
        </mxCell>
        <mxCell id="hH1a-xPFMU92AcwWNgor-30" value="&lt;span style=&quot;color: rgb(17 , 31 , 44) ; font-family: , , &amp;#34;pingfang sc&amp;#34; , &amp;#34;hiragino sans gb&amp;#34; , &amp;#34;segoe ui&amp;#34; , , &amp;#34;roboto&amp;#34; , &amp;#34;droid sans&amp;#34; , &amp;#34;helvetica neue&amp;#34; , sans-serif ; font-size: 14px ; text-align: left ; background-color: rgb(255 , 255 , 255)&quot;&gt;devops_f_mc_cost&lt;/span&gt;&lt;font size=&quot;1&quot;&gt;&lt;br&gt;MC费用表&lt;br&gt;&lt;/font&gt;" style="rounded=1;whiteSpace=wrap;html=1;fontSize=9;" parent="1" vertex="1">
          <mxGeometry x="400" y="800" width="120" height="50" as="geometry" />
        </mxCell>
        <mxCell id="hH1a-xPFMU92AcwWNgor-31" value="&lt;font size=&quot;1&quot;&gt;devops_f_bl_dept_&lt;br&gt;sys_cmp_inst_info&lt;br&gt;部门组件表&lt;br&gt;&lt;/font&gt;" style="rounded=1;whiteSpace=wrap;html=1;fontSize=9;fillColor=#d5e8d4;strokeColor=#82b366;" parent="1" vertex="1">
          <mxGeometry x="590" y="602.25" width="120" height="45.5" as="geometry" />
        </mxCell>
        <mxCell id="hH1a-xPFMU92AcwWNgor-32" value="&lt;font size=&quot;1&quot;&gt;devops_f_bl_sys_&lt;br&gt;cmp_inst_info&lt;br&gt;系统组件表&lt;br&gt;&lt;/font&gt;" style="rounded=1;whiteSpace=wrap;html=1;fontSize=9;fillColor=#d5e8d4;strokeColor=#82b366;" parent="1" vertex="1">
          <mxGeometry x="590" y="532" width="120" height="45.5" as="geometry" />
        </mxCell>
        <mxCell id="hH1a-xPFMU92AcwWNgor-33" value="&lt;font size=&quot;1&quot;&gt;devops_f_bl_emr&lt;br&gt;emr账单表&lt;br&gt;&lt;/font&gt;" style="rounded=1;whiteSpace=wrap;html=1;fontSize=9;fillColor=#d5e8d4;strokeColor=#82b366;" parent="1" vertex="1">
          <mxGeometry x="400" y="290" width="120" height="45.5" as="geometry" />
        </mxCell>
        <mxCell id="hH1a-xPFMU92AcwWNgor-35" value="&lt;font size=&quot;1&quot;&gt;devops_f_bl_&lt;br&gt;product&lt;br&gt;产品费用组成表&lt;br&gt;&lt;/font&gt;" style="rounded=1;whiteSpace=wrap;html=1;fontSize=9;fillColor=#d5e8d4;strokeColor=#82b366;" parent="1" vertex="1">
          <mxGeometry x="54" y="292" width="120" height="45.5" as="geometry" />
        </mxCell>
        <mxCell id="hH1a-xPFMU92AcwWNgor-36" value="" style="shape=flexArrow;endArrow=classic;html=1;entryX=0.5;entryY=1;entryDx=0;entryDy=0;" parent="1" edge="1">
          <mxGeometry width="50" height="50" relative="1" as="geometry">
            <mxPoint x="112" y="374" as="sourcePoint" />
            <mxPoint x="112" y="341.5" as="targetPoint" />
          </mxGeometry>
        </mxCell>
        <mxCell id="hH1a-xPFMU92AcwWNgor-37" value="" style="shape=flexArrow;endArrow=classic;html=1;entryX=0.5;entryY=1;entryDx=0;entryDy=0;" parent="1" edge="1">
          <mxGeometry width="50" height="50" relative="1" as="geometry">
            <mxPoint x="456" y="386" as="sourcePoint" />
            <mxPoint x="456" y="344.5" as="targetPoint" />
          </mxGeometry>
        </mxCell>
        <mxCell id="hH1a-xPFMU92AcwWNgor-39" value="&lt;span style=&quot;color: rgb(51 , 51 , 51) ; background-color: rgb(255 , 255 , 255)&quot;&gt;&lt;font style=&quot;font-size: 12px&quot;&gt;QueryBillOverview&lt;br&gt;(T-1)&lt;/font&gt;&lt;/span&gt;" style="text;html=1;strokeColor=none;fillColor=none;align=center;verticalAlign=middle;whiteSpace=wrap;rounded=0;dashed=1;fontSize=9;" parent="1" vertex="1">
          <mxGeometry x="110" y="350" width="140" height="20" as="geometry" />
        </mxCell>
        <mxCell id="hH1a-xPFMU92AcwWNgor-41" value="" style="shape=flexArrow;endArrow=classic;html=1;" parent="1" edge="1">
          <mxGeometry width="50" height="50" relative="1" as="geometry">
            <mxPoint x="107" y="466" as="sourcePoint" />
            <mxPoint x="107" y="510" as="targetPoint" />
          </mxGeometry>
        </mxCell>
        <mxCell id="hH1a-xPFMU92AcwWNgor-42" value="&lt;font size=&quot;1&quot;&gt;devops_f_bl_&lt;br&gt;product&lt;br&gt;OSS费用表&lt;br&gt;&lt;/font&gt;" style="rounded=1;whiteSpace=wrap;html=1;fontSize=9;fillColor=#d5e8d4;strokeColor=#82b366;" parent="1" vertex="1">
          <mxGeometry x="50" y="514.5" width="120" height="45.5" as="geometry" />
        </mxCell>
        <mxCell id="hH1a-xPFMU92AcwWNgor-43" value="QueryUserOmsDataRequest&lt;br&gt;(T-1)" style="text;html=1;strokeColor=none;fillColor=none;align=center;verticalAlign=middle;whiteSpace=wrap;rounded=0;dashed=1;fontSize=9;" parent="1" vertex="1">
          <mxGeometry x="170" y="476" width="40" height="20" as="geometry" />
        </mxCell>
        <mxCell id="hH1a-xPFMU92AcwWNgor-44" value="" style="strokeWidth=2;html=1;shape=mxgraph.flowchart.annotation_2;align=left;labelPosition=right;pointerEvents=1;fontSize=9;direction=west;" parent="1" vertex="1">
          <mxGeometry x="170" y="650" width="50" height="100" as="geometry" />
        </mxCell>
        <mxCell id="zQznArGyIkMDp7onT0D3-1" value="" style="rounded=0;whiteSpace=wrap;html=1;fillColor=#f8cecc;strokeColor=#b85450;" parent="1" vertex="1">
          <mxGeometry x="598" y="286" width="50" height="20" as="geometry" />
        </mxCell>
        <mxCell id="zQznArGyIkMDp7onT0D3-2" value="账单基础表" style="text;html=1;strokeColor=none;fillColor=none;align=center;verticalAlign=middle;whiteSpace=wrap;rounded=0;" parent="1" vertex="1">
          <mxGeometry x="658" y="284.75" width="70" height="20" as="geometry" />
        </mxCell>
        <mxCell id="zQznArGyIkMDp7onT0D3-3" value="" style="rounded=0;whiteSpace=wrap;html=1;fillColor=#d5e8d4;strokeColor=#82b366;" parent="1" vertex="1">
          <mxGeometry x="598" y="326" width="50" height="20" as="geometry" />
        </mxCell>
        <mxCell id="zQznArGyIkMDp7onT0D3-4" value="BI hive结果表" style="text;html=1;strokeColor=none;fillColor=none;align=center;verticalAlign=middle;whiteSpace=wrap;rounded=0;" parent="1" vertex="1">
          <mxGeometry x="656" y="324.75" width="82" height="20" as="geometry" />
        </mxCell>
        <mxCell id="zQznArGyIkMDp7onT0D3-6" value="" style="rounded=0;whiteSpace=wrap;html=1;" parent="1" vertex="1">
          <mxGeometry x="598" y="368" width="50" height="20" as="geometry" />
        </mxCell>
        <mxCell id="zQznArGyIkMDp7onT0D3-7" value="hive原始表或临时中间表" style="text;html=1;strokeColor=none;fillColor=none;align=center;verticalAlign=middle;whiteSpace=wrap;rounded=0;" parent="1" vertex="1">
          <mxGeometry x="658" y="367.38" width="72" height="20" as="geometry" />
        </mxCell>
      </root>
    </mxGraphModel>
  </diagram>
</mxfile>
